<svg id="Capa_1" enable-background="new 0 0 512 512" height="512" viewBox="0 0 512 512" width="512" xmlns="http://www.w3.org/2000/svg" xmlns:xlink="http://www.w3.org/1999/xlink"><linearGradient id="SVGID_1_" gradientUnits="userSpaceOnUse" x1="23.821" x2="459.531" y1="343.269" y2="91.711"><stop offset="0" stop-color="#dcfdee" stop-opacity="0"/><stop offset=".6288" stop-color="#d2f3e4"/></linearGradient><path d="m16.074 302.88c18.727 64.003 72.707 194.564 163.922 182.845 91.486-11.755 55.758-129.725 139.508-145.894 36.867-7.118 61.857 56.689 98.806 54.704 47.588-2.557 71.81-49.663 85.108-89.264 28.197-83.968-14.029-226.352-112.858-251.011-86.244-21.519-96.332 83.855-171.322 53.248-42.149-17.203-37.938-68.576-89.272-78.942-155.299-31.36-138.811 189.15-113.892 274.314z" fill="url(#SVGID_1_)"/><path d="m449.418 357.639h-201.985l162.248-160.826c3.955-3.92 3.955-10.275 0-14.195l-66.423-65.841c-3.955-3.92-10.366-3.92-14.321 0l-162.248 160.826v-200.126c0-5.568-4.514-10.082-10.082-10.082h-94.025c-5.568 0-10.082 4.514-10.082 10.082v383.269c0 5.568 4.514 10.082 10.082 10.082h386.836c5.568 0 10.082-4.514 10.082-10.082v-93.025c0-5.568-4.514-10.082-10.082-10.082z" fill="#6583fe" opacity=".2"/><path d="m156.607 450.828h-94.025c-5.568 0-10.082-4.514-10.082-10.082v-383.269c0-5.568 4.514-10.082 10.082-10.082h94.026c5.568 0 10.082 4.514 10.082 10.082v383.269c-.001 5.568-4.514 10.082-10.083 10.082z" fill="#fff"/><path d="m52.5 289.004h114.189v80.536h-114.189z" fill="#4369fd"/><path d="m52.5 208.468h114.189v80.536h-114.189z" fill="#8399fe"/><path d="m52.5 127.931h114.189v80.536h-114.189z" fill="#9fb0fe"/><path d="m62.627 47.395h93.936c5.593 0 10.126 4.494 10.126 10.038v70.499h-114.189v-70.499c0-5.544 4.534-10.038 10.127-10.038z" fill="#b7c5ff"/><path d="m121.889 447.888-66.423-65.841c-3.955-3.92-3.955-10.275 0-14.195l273.472-271.075c3.955-3.92 10.366-3.92 14.321 0l66.423 65.841c3.955 3.92 3.955 10.275 0 14.195l-273.472 271.075c-3.955 3.92-10.366 3.92-14.321 0z" fill="#fff"/><path d="m163.744 260.523 80.744 80.036-57.452 56.948-80.744-80.036z" fill="#00d890"/><path d="m221.195 203.575 80.744 80.036-57.451 56.948-80.744-80.036z" fill="#01eca5"/><path d="m278.647 146.627 80.744 80.036-57.452 56.948-80.744-80.036z" fill="#02ffb3"/><path d="m343.259 96.777 66.423 65.841c3.955 3.92 3.955 10.275 0 14.195l-50.291 49.85-80.744-80.036 50.291-49.85c3.954-3.92 10.366-3.92 14.321 0z" fill="#97ffd2"/><path d="m52.5 440.746v-93.025c0-5.568 4.514-10.082 10.082-10.082h386.836c5.568 0 10.082 4.514 10.082 10.082v93.025c0 5.568-4.514 10.082-10.082 10.082h-386.836c-5.568 0-10.082-4.514-10.082-10.082z" fill="#fff"/><path d="m134.506 337.639h81.249v113.188h-81.249z" fill="#ff5ba8"/><path d="m215.754 337.639h81.249v113.188h-81.249z" fill="#ff7eb8"/><path d="m297.003 337.639h81.249v113.188h-81.249z" fill="#ffa8cf"/><path d="m459.5 347.677v93.113c0 5.544-4.534 10.038-10.126 10.038h-71.122v-113.189h71.122c5.592 0 10.126 4.494 10.126 10.038z" fill="#ffc4df"/><path d="m449.418 332.639h-40.084c-2.761 0-5 2.238-5 5s2.239 5 5 5h40.084c2.802 0 5.082 2.28 5.082 5.082v93.025c0 2.802-2.28 5.082-5.082 5.082h-386.836c-2.802 0-5.082-2.28-5.082-5.082v-93.025c0-2.802 2.28-5.082 5.082-5.082h312.751c2.761 0 5-2.238 5-5s-2.239-5-5-5h-115.753l153.621-152.274c2.867-2.842 4.446-6.623 4.446-10.648s-1.579-7.807-4.446-10.648l-66.423-65.842c-5.89-5.838-15.471-5.837-21.361 0l-241.529 239.412h-21.306c-1.785 0-3.491.328-5.082.9v-276.059c0-2.807 2.279-5.091 5.08-5.091h94.03c2.801 0 5.08 2.284 5.08 5.091v165.77c0 2.762 2.239 5 5 5s5-2.238 5-5v-165.77c0-8.321-6.765-15.091-15.08-15.091h-94.03c-8.315 0-15.08 6.77-15.08 15.091v383.266c0 8.316 6.766 15.082 15.082 15.082h386.836c8.316 0 15.082-6.766 15.082-15.082v-93.025c0-8.317-6.766-15.082-15.082-15.082zm-116.96-232.312c2.008-1.988 5.275-1.987 7.281 0l66.423 65.842c.958.95 1.486 2.21 1.486 3.547s-.527 2.597-1.486 3.547l-160.763 159.352c-.007.007-.012.016-.019.023h-147.287z" fill="#2626bc"/><circle cx="95.459" cy="397.507" fill="#6583fe" r="10.916"/><g fill="#fff"><path d="m91.667 111.679h-14.883c-2.761 0-5-2.239-5-5s2.239-5 5-5h14.882c2.761 0 5 2.239 5 5s-2.238 5-4.999 5z"/><path d="m91.667 193.289h-14.883c-2.761 0-5-2.239-5-5s2.239-5 5-5h14.882c2.761 0 5 2.239 5 5s-2.238 5-4.999 5z"/><path d="m91.667 274.9h-14.883c-2.761 0-5-2.239-5-5s2.239-5 5-5h14.882c2.761 0 5 2.239 5 5s-2.238 5-4.999 5z"/><path d="m318.767 162.87-10.523-10.523c-1.952-1.952-1.952-5.119 0-7.071s5.119-1.952 7.071 0l10.523 10.523c1.952 1.952 1.952 5.119 0 7.071s-5.119 1.952-7.071 0z"/><path d="m261.06 220.577-10.523-10.523c-1.952-1.952-1.952-5.119 0-7.071s5.119-1.952 7.071 0l10.523 10.523c1.952 1.952 1.952 5.119 0 7.071s-5.119 1.953-7.071 0z"/><path d="m203.352 278.284-10.523-10.523c-1.952-1.952-1.952-5.119 0-7.071s5.119-1.952 7.071 0l10.523 10.523c1.952 1.952 1.952 5.119 0 7.071s-5.118 1.953-7.071 0z"/><path d="m393.651 376.982v-14.882c0-2.761 2.239-5 5-5s5 2.239 5 5v14.882c0 2.761-2.239 5-5 5s-5-2.239-5-5z"/><path d="m312.041 376.982v-14.882c0-2.761 2.239-5 5-5s5 2.239 5 5v14.882c0 2.761-2.239 5-5 5s-5-2.239-5-5z"/><path d="m230.43 376.982v-14.882c0-2.761 2.239-5 5-5s5 2.239 5 5v14.882c0 2.761-2.239 5-5 5s-5-2.239-5-5z"/><path d="m148.82 376.982v-14.882c0-2.761 2.239-5 5-5s5 2.239 5 5v14.882c0 2.761-2.239 5-5 5s-5-2.239-5-5z"/></g><path d="m266.488 115.718c-2.761 0-5-2.238-5-5 0-3.309-2.691-6-6-6-2.761 0-5-2.238-5-5s2.239-5 5-5c3.309 0 6-2.691 6-6 0-2.762 2.239-5 5-5s5 2.238 5 5c0 3.309 2.691 6 6 6 2.761 0 5 2.238 5 5s-2.239 5-5 5c-3.309 0-6 2.691-6 6 0 2.761-2.239 5-5 5z" fill="#01eca5"/><path d="m448.5 272.611c-2.761 0-5-2.238-5-5 0-3.309-2.691-6-6-6-2.761 0-5-2.238-5-5s2.239-5 5-5c3.309 0 6-2.691 6-6 0-2.762 2.239-5 5-5s5 2.238 5 5c0 3.309 2.691 6 6 6 2.761 0 5 2.238 5 5s-2.239 5-5 5c-3.309 0-6 2.691-6 6 0 2.762-2.239 5-5 5z" fill="#ff7eb8"/><path d="m211.888 68.173c-2.761 0-5-2.238-5-5 0-3.309-2.691-6-6-6-2.761 0-5-2.238-5-5s2.239-5 5-5c3.309 0 6-2.692 6-6.001 0-2.762 2.239-5 5-5s5 2.238 5 5c0 3.309 2.691 6.001 6 6.001 2.761 0 5 2.238 5 5s-2.239 5-5 5c-3.309 0-6 2.691-6 6 0 2.762-2.239 5-5 5z" fill="#6583fe"/><path d="m354.391 299.004c-1.28 0-2.559-.488-3.536-1.465-1.953-1.952-1.953-5.118 0-7.07l10-10c1.953-1.953 5.118-1.953 7.071 0 1.953 1.952 1.953 5.118 0 7.07l-10 10c-.976.977-2.256 1.465-3.535 1.465z" fill="#6583fe"/><path d="m398.651 73.173c-1.28 0-2.559-.488-3.536-1.465-1.953-1.952-1.953-5.118 0-7.07l10-10c1.953-1.953 5.118-1.953 7.071 0 1.953 1.952 1.953 5.118 0 7.07l-10 10c-.976.977-2.255 1.465-3.535 1.465z" fill="#01eca5"/></svg>